<?xml version="1.0" encoding="UTF-8"?>
<svg width="8px" height="12px" viewBox="0 0 8 12" version="1.1" xmlns="http://www.w3.org/2000/svg" xmlns:xlink="http://www.w3.org/1999/xlink">
    <title>1.基础组件/2.Icon/线性/drag</title>
    <g id="组件" stroke="none" stroke-width="1" fill="none" fill-rule="evenodd">
        <g id="4.数据/5.Table表格/列/拖动排序" transform="translate(-50.000000, -12.000000)">
            <g id="1.基础组件/2.Icon/线性/drag" transform="translate(48.000000, 12.000000)">
                <rect id="矩形" fill="#D8D8D8" opacity="0" x="0" y="0" width="12" height="12"></rect>
                <path d="M2.10674157,5.97180452 L3.6994382,7.49436091 L3.0505618,8.17105264 L0.75,5.97180452 L3.0505618,3.77255639 L3.6994382,4.39285714 L2.10674157,5.97180452 Z M11.25,5.97180452 L8.9494382,8.11466166 L8.3005618,7.49436091 L9.89325843,5.97180452 L8.3005618,4.44924812 L8.9494382,3.71616541 L11.25,5.97180452 Z M6.70786517,2.25 L7.6516854,2.25 L7.6516854,9.75 L6.70786517,9.75 L6.70786517,2.25 Z M4.52528089,2.25 L5.46910112,2.25 L5.46910112,9.75 L4.52528089,9.75 L4.52528089,2.25 L4.52528089,2.25 Z" id="形状" fill="#1AB495" transform="translate(6.000000, 6.000000) rotate(90.000000) translate(-6.000000, -6.000000) "></path>
            </g>
        </g>
    </g>
</svg>