<?xml version="1.0" standalone="no"?><!DOCTYPE svg PUBLIC "-//W3C//DTD SVG 1.1//EN" "http://www.w3.org/Graphics/SVG/1.1/DTD/svg11.dtd"><svg t="1638848682519" class="icon" viewBox="0 0 1024 1024" version="1.1" xmlns="http://www.w3.org/2000/svg" p-id="3004" xmlns:xlink="http://www.w3.org/1999/xlink" width="200" height="200"><defs><style type="text/css"></style></defs><path d="M512 219.428571c161.645714 0 307.931429 97.499429 438.857143 292.571429-130.925714 195.072-277.211429 292.571429-438.857143 292.571429S204.068571 707.072 73.142857 512c130.925714-195.072 277.211429-292.571429 438.857143-292.571429z m0 73.142858c-124.123429 0-241.225143 65.462857-365.714286 219.428571 119.661714 147.968 231.424 213.577143 365.714286 219.428571 124.196571 0 241.298286-65.462857 365.714286-219.428571-119.588571-147.968-231.350857-213.577143-365.714286-219.428571z" p-id="3005" fill="#515151"></path><path d="M818.614857 146.285714l51.712 51.712L197.997714 870.4 146.285714 818.688z" p-id="3006" fill="#515151"></path><path d="M512 365.714286a146.285714 146.285714 0 1 1 0 292.571428 146.285714 146.285714 0 0 1 0-292.571428z m0 73.142857a73.142857 73.142857 0 1 0 0 146.285714 73.142857 73.142857 0 0 0 0-146.285714z" p-id="3007" fill="#515151"></path></svg>